inDegrees=yes
name=ik_S40_A10_T01
DataType=double
version=3
OpenSimVersion=4.3-2021-08-27-4bc7ad9
endheader
time	pelvis_tilt	pelvis_list	pelvis_rotation	pelvis_tx	pelvis_ty	pelvis_tz	hip_flexion_r	hip_adduction_r	hip_rotation_r	knee_angle_r	knee_angle_r_beta	ankle_angle_r	subtalar_angle_r	mtp_angle_r	hip_flexion_l	hip_adduction_l	hip_rotation_l	knee_angle_l	knee_angle_l_beta	ankle_angle_l	subtalar_angle_l	mtp_angle_l	lumbar_extension	lumbar_bending	lumbar_rotation	arm_flex_r	arm_add_r	arm_rot_r	elbow_flex_r	pro_sup_r	wrist_flex_r	wrist_dev_r	arm_flex_l	arm_add_l	arm_rot_l	elbow_flex_l	pro_sup_l	wrist_flex_l	wrist_dev_l
0	0	0	0	0	0.9399999999999999	0	0	0	0	0	0	0	0	0	0	0	0	0	0	0	0	0	0	0	0	0	0	0	0	89.99999999963507	0	0	0	0	0	0	89.99999999869995	0	0
0.02	-2.038160697465766	-3.530998210041536	32.65640608587906	0	0.9399999999999999	0	1.609602676512716	-0.756599897886496	-0.5404691603744087	2.502002081568828	0.04366817421512778	0	0	0	1.609602676512716	-0.756599897886496	-0.5404691603744087	2.502002081568828	0.04366817421512778	0	0	0	-2.41624652185282	0.2573908734111513	12.82035433955324	33.67294352933706	9.214034397556865	21.90677530790997	7.302731940352864	76.03169776713763	0	0	33.8327177017993	11.40277516987027	10.30386500921932	2.73067509013679	78.33534457728985	0	0
0.04	-2.051415767119952	-3.531834720537679	32.6282459977531	0	0.9399999999999999	0	1.615675171252865	-0.7597780881878271	-0.5425229822425649	2.511338510509384	0.04383112564051896	0	0	0	1.615675171252865	-0.7597780881878271	-0.5425229822425649	2.511338510509384	0.04383112564051896	0	0	0	-2.427985321504172	0.2637477877625114	12.81941414864982	33.66855278099546	9.257876640389977	21.88301819675615	7.320533737853288	76.03137561532978	0	0	33.85756344656573	11.46775931995761	10.37200347761913	2.731083723486293	78.31611137370189	0	0
0.06	-2.071481185853095	-3.536313660993487	32.61563592259741	0	0.9399999999999999	0	1.628441878477783	-0.7664815366943503	-0.5468431294538363	2.530973915727672	0.04417382811154137	0	0	0	1.628441878477783	-0.7664815366943503	-0.5468431294538363	2.530973915727672	0.04417382811154137	0	0	0	-2.446845562616836	0.2695454958232221	12.83078236001942	33.70113219335934	9.252287242594001	21.7990000344097	7.320597115593858	75.96345516895208	0	0	33.86334528043981	11.5074020204719	10.47279105208263	2.757741885991104	78.27350888444671	0	0
0.08	-2.104567764117736	-3.434523515926448	33.01628272468816	0	0.9399999999999999	0	4.862008956674891	-2.172206669136781	-1.717535086014385	5.020754729904401	0.0876287009719104	0	0	0	4.862008956674891	-2.172206669136781	-1.717535086014385	5.020754729904401	0.0876287009719104	0	0	0	-2.489329547455359	0.192705436592786	12.41431948105998	33.71323989704458	9.265045762233918	21.75875050547334	7.268032293446175	75.84458564180134	0	0	33.87097679554543	11.52604954833815	10.5382236954509	2.772042730475704	78.2491043640693	0	0
0.1	-2.152741994465143	-3.405980209022931	33.21067660799479	0	0.9399999999999999	0	6.412675983672764	-2.791909791064509	-2.247592650059281	6.35236020488712	0.1108696008479418	0	0	0	6.412675983672764	-2.791909791064509	-2.247592650059281	6.35236020488712	0.1108696008479418	0	0	0	-2.541681953788052	0.1749607835416248	12.18632864849807	33.7694469699393	9.246452693308985	21.75541727799795	7.338324005688484	75.90265220804181	0	0	33.94607524334519	11.55144622973096	10.53081394067445	2.786925420786396	78.24149182023447	0	0
0.12	-2.167065233111148	-3.37603537317134	33.35032310059453	0	0.9399999999999999	0	7.605366493801944	-3.270922399516011	-2.647652654071442	7.504936417413645	0.1309858506366956	0	0	0	7.605366493801944	-3.270922399516011	-2.647652654071442	7.504936417413645	0.1309858506366956	0	0	0	-2.55202179551105	0.146575020516668	12.0346951343364	33.79305662253167	9.240521828296602	21.7338257658501	7.314249776717044	75.93154331504689	0	0	33.92752507832702	11.55872211668317	10.55335740452978	2.828273869549812	78.37876388394099	0	0
0.14	-2.175016297306211	-3.377622157874833	33.38142457581639	0	0.9399999999999999	0	7.827549677718219	-3.353475402019201	-2.720779283566956	7.699616358270454	0.1343836565922348	0	0	0	7.827549677718219	-3.353475402019201	-2.720779283566956	7.699616358270454	0.1343836565922348	0	0	0	-2.564034703335697	0.1413315386543514	11.99134456006289	33.78783210729196	9.254353448160348	21.74965636480526	7.355324795154472	75.93891607793064	0	0	33.93962838733488	11.54687998498839	10.55759193434213	2.798137145993354	78.40383318404285	0	0
0.16	-2.198000058638634	-3.366946791637096	33.51787822212537	0	0.9399999999999999	0	8.922037068272754	-3.781369035059381	-3.079720346927477	8.794194589036582	0.153487650639758	0	0	0	8.922037068272754	-3.781369035059381	-3.079720346927477	8.794194589036582	0.153487650639758	0	0	0	-2.595314349461029	0.1163697858472501	11.83005158907311	33.88532416482565	9.228835213417918	21.76453387372008	7.274553752476154	75.80666463543264	0	0	33.96002899123924	11.54702704811189	10.5676161468606	2.808658670215534	78.38678802791533	0	0
0.18	-2.201447213546103	-3.347259013618114	33.70770993371701	0	0.9399999999999999	0	9.949550897532163	-4.156408501950837	-3.40820136878369	9.800476934403285	0.1710505907710977	0	0	0	9.949550897532163	-4.156408501950837	-3.40820136878369	9.800476934403285	0.1710505907710977	0	0	0	-2.612673542523884	0.1061586315088868	11.636707011418	33.89025825017319	9.236626754327089	21.77313920329956	7.28090277629768	75.82220249541632	0	0	33.89988167267824	11.58255109260992	10.61175428676572	2.799050492955575	78.34294228653675	0	0
0.2	-2.196536632879792	-3.344512805064564	33.73285253105622	0	0.9399999999999999	0	10.15460361386113	-4.226480838063118	-3.472475698498683	9.992483654358344	0.1744017402202681	0	0	0	10.15460361386113	-4.226480838063118	-3.472475698498683	9.992483654358344	0.1744017402202681	0	0	0	-2.611408255665809	0.09755147450386459	11.60261013266429	33.88613915353227	9.223818666842762	21.78410680249507	7.34023588290387	75.83479318917125	0	0	33.84441849385865	11.60149913490836	10.63316883886342	2.742424475432256	78.30811311338525	0	0
0.22	-2.204928702577434	-3.345731751645221	33.74587314512696	0	0.9399999999999999	0	10.27963641819757	-4.269679653447173	-3.511610370805326	10.1125211116744	0.1764967890761554	0	0	0	10.27963641819757	-4.269679653447173	-3.511610370805326	10.1125211116744	0.1764967890761554	0	0	0	-2.621723241033771	0.09651273623203495	11.57766556617436	33.90574551170145	9.229106939148842	21.79099526794645	7.320069999595025	75.81801856941907	0	0	33.77669445850981	11.64939208244094	10.6235416053108	2.76011985062203	78.26345025845495	0	0
0.24	-2.204271022955284	-3.324695684352841	33.85930384578283	0	0.9399999999999999	0	11.09942299937823	-4.555618965445426	-3.767094059107138	10.93050685433574	0.1907733335199668	0	0	0	11.09942299937823	-4.555618965445426	-3.767094059107138	10.93050685433574	0.1907733335199668	0	0	0	-2.625793889708117	0.07602919888202288	11.45231002352673	33.92173162501073	9.216325551729277	21.86984167487394	7.287115378251972	75.72359864842262	0	0	33.7441523927656	11.64087695004723	10.61210036570717	2.67921140060112	78.30625436855054	0	0
0.26	-2.201177821237815	-3.321465265726433	33.8981593079581	0	0.9399999999999999	0	11.33012243564328	-4.632501090534816	-3.837935852410228	11.15546786433485	0.1946996438330632	0	0	0	11.33012243564328	-4.632501090534816	-3.837935852410228	11.15546786433485	0.1946996438330632	0	0	0	-2.626095245342806	0.06792372338926551	11.40648572070267	33.91797396122317	9.213865017768308	21.94048758485761	7.314042884497216	75.68276807537701	0	0	33.73965630175931	11.63688530419172	10.61772084480144	2.629280073159518	78.29371591358134	0	0
0.28	-2.19340845270079	-3.294907480215999	34.00293730871566	0	0.9399999999999999	0	12.00329913289372	-4.866405368772824	-4.045239277403982	11.84717659110971	0.2067722385800624	0	0	0	12.00329913289372	-4.866405368772824	-4.045239277403982	11.84717659110971	0.2067722385800624	0	0	0	-2.618938175260099	0.05573370407324624	11.29955958916214	33.90003214860544	9.178014009206697	21.99362829391694	7.311883123489881	75.5827331907593	0	0	33.69013990069951	11.61881907473835	10.60087463975147	2.629196209540059	78.30959305936567	0	0
0.3	-2.201149144776864	-3.28790633141289	34.13823660650259	0	0.9399999999999999	0	12.75068175743438	-5.116074417778433	-4.271737354151323	12.61805242135384	0.2202265599418673	0	0	0	12.75068175743438	-5.116074417778433	-4.271737354151323	12.61805242135384	0.2202265599418673	0	0	0	-2.634328753030308	0.03587416297437376	11.16750431392161	33.93452588572708	9.177291012029642	22.00332828199063	7.311034820938085	75.57867424557062	0	0	33.71065796461968	11.61057238902064	10.62516662141954	2.577044804796165	78.27037715755101	0	0
0.32	-2.186839081373887	-3.277051681771156	34.17070080569952	0	0.9399999999999999	0	12.87639910186184	-5.153597954950929	-4.308406739845171	12.74174829612705	0.2223854602277945	0	0	0	12.87639910186184	-5.153597954950929	-4.308406739845171	12.74174829612705	0.2223854602277945	0	0	0	-2.618477809054555	0.0309407667783281	11.15110249983451	33.93389727042727	9.163831088253785	21.95164220119833	7.33474795806705	75.59683743327716	0	0	33.64392331275934	11.60840444285947	10.59216168329577	2.522161484709086	78.30514125538568	0	0
0.34	-2.190097240703499	-3.270797944965406	34.21698256873375	0	0.9399999999999999	0	13.08880010813365	-5.223061514776443	-4.371929083198714	12.96351445875551	0.2262560099351743	0	0	0	13.08880010813365	-5.223061514776443	-4.371929083198714	12.96351445875551	0.2262560099351743	0	0	0	-2.621526494474138	0.02903075051523538	11.11775790951129	33.9435449052863	9.115046052579755	21.91909735673258	7.446909537133971	75.6255913013571	0	0	33.61141845965052	11.5886111525828	10.54958885530393	2.616149829676052	78.37475307569932	0	0
0.36	-2.192296560495047	-3.269089299077007	34.24963412994573	0	0.9399999999999999	0	13.15984678672366	-5.242903245699458	-4.392291688935058	13.03135577117444	0.2274400642057587	0	0	0	13.15984678672366	-5.242903245699458	-4.392291688935058	13.03135577117444	0.2274400642057587	0	0	0	-2.623579799513823	0.02839538205283001	11.10239077198891	33.98920879474295	9.09021690415933	21.90816455882269	7.289087126445047	75.61195187577462	0	0	33.62978053980936	11.58901537172088	10.49406045749939	2.408944810709873	78.44659590212729	0	0
0.3800000000000001	-2.187074146241871	-3.268126775759092	34.27560881109875	0	0.9399999999999999	0	13.232407984183	-5.265638775642028	-4.413699270645541	13.1045942387767	0.2287183166045333	0	0	0	13.232407984183	-5.265638775642028	-4.413699270645541	13.1045942387767	0.2287183166045333	0	0	0	-2.619674698958051	0.0225552930298776	11.10023694555961	33.9836777624189	9.066810514893538	21.8961305240886	7.295441485681647	75.60699138985784	0	0	33.57233102249737	11.5596841095439	10.4946418293167	2.365688072334666	78.49104320426136	0	0
0.4000000000000001	-2.201051258325809	-3.291530532472875	34.29584515393025	0	0.9399999999999999	0	13.23534445113384	-5.266895610119365	-4.414655648273384	13.10824695009117	0.2287820684435957	0	0	0	13.23534445113384	-5.266895610119365	-4.414655648273384	13.10824695009117	0.2287820684435957	0	0	0	-2.644386666368162	0.01086607362815791	11.10104807319409	33.90370271070324	9.064725797389658	21.92997032516465	7.331165316667432	75.59506360690393	0	0	33.57411644658802	11.53582838347893	10.5363504751586	2.348934957393622	78.54274102848008	0	0
